<?xml version="1.0" encoding="UTF-8" standalone="no"?>
<svg width="213px" height="213px" viewBox="0 0 213 213" version="1.1" xmlns="http://www.w3.org/2000/svg" xmlns:xlink="http://www.w3.org/1999/xlink">
    <!-- Generator: Sketch 3.8.3 (29802) - http://www.bohemiancoding.com/sketch -->
    <title>Slice 1</title>
    <desc>Created with Sketch.</desc>
    <defs>
        <rect id="path-1" x="78" y="59" width="67" height="85"></rect>
        <mask id="mask-2" maskContentUnits="userSpaceOnUse" maskUnits="objectBoundingBox" x="-2" y="-2" width="71" height="89">
            <rect x="76" y="57" width="71" height="89" fill="white"></rect>
            <use xlink:href="#path-1" fill="black"></use>
        </mask>
        <path d="M68,5.3125 L68,10.625 L68,21.25 L68,42.5 L68,81.9945496 C68,83.654414 66.6569598,85 64.9903842,85 L3.00961584,85 C1.34745091,85 0,83.664853 0,81.999772 L0,3.00022799 L0,3.00022799 C0,1.34324782 1.34331243,0 3.00235843,0 L34,0 L51,0 L59.5,0" id="path-3"></path>
        <mask id="mask-4" maskContentUnits="userSpaceOnUse" maskUnits="objectBoundingBox" x="-2" y="-2" width="72" height="89">
            <rect x="-2" y="-2" width="72" height="89" fill="white"></rect>
            <use xlink:href="#path-3" fill="black"></use>
        </mask>
        <path d="M33.5,41 C36.5375661,41 39,38.7839226 39,36.0502525 C39,33.3165825 28,33.3165825 28,36.0502525 C28,38.7839226 30.4624339,41 33.5,41 Z" id="path-5"></path>
        <mask id="mask-6" maskContentUnits="userSpaceOnUse" maskUnits="objectBoundingBox" x="-2" y="-2" width="15" height="11">
            <rect x="26" y="32" width="15" height="11" fill="white"></rect>
            <use xlink:href="#path-5" fill="black"></use>
        </mask>
        <path d="M68,5.3125 L68,10.625 L68,21.25 L68,42.5 L68,81.9945496 C68,83.654414 66.6569598,85 64.9903842,85 L3.00961584,85 C1.34745091,85 0,83.664853 0,81.999772 L0,3.00022799 L0,3.00022799 C0,1.34324782 1.34331243,0 3.00235843,0 L34,0 L51,0 L59.5,0" id="path-7"></path>
        <mask id="mask-8" maskContentUnits="userSpaceOnUse" maskUnits="objectBoundingBox" x="-2" y="-2" width="72" height="89">
            <rect x="-2" y="-2" width="72" height="89" fill="white"></rect>
            <use xlink:href="#path-7" fill="black"></use>
        </mask>
        <path d="M60.9168348,4.60575289 C61.9644826,3.32170496 63.7501402,3.2348499 64.9126992,4.41938465 L69.4474248,9.03983015 L56.4046467,10.1361091 L60.9168348,4.60575289 Z" id="path-9"></path>
        <mask id="mask-10" maskContentUnits="userSpaceOnUse" maskUnits="objectBoundingBox" x="0" y="0" width="13.0427782" height="6.5520923" fill="white">
            <use xlink:href="#path-9"></use>
        </mask>
        <path d="M60.9168348,4.60575289 C61.9644826,3.32170496 63.7501402,3.2348499 64.9126992,4.41938465 L69.4474248,9.03983015 L56.4046467,10.1361091 L60.9168348,4.60575289 Z" id="path-11"></path>
        <mask id="mask-12" maskContentUnits="userSpaceOnUse" maskUnits="objectBoundingBox" x="0" y="0" width="13.0427782" height="6.5520923" fill="white">
            <use xlink:href="#path-11"></use>
        </mask>
        <rect id="path-13" x="126" y="134" width="29" height="29" rx="3"></rect>
        <mask id="mask-14" maskContentUnits="userSpaceOnUse" maskUnits="objectBoundingBox" x="-2" y="-2" width="33" height="33">
            <rect x="124" y="132" width="33" height="33" fill="white"></rect>
            <use xlink:href="#path-13" fill="black"></use>
        </mask>
    </defs>
    <g id="Page-1" stroke="none" stroke-width="1" fill="none" fill-rule="evenodd">
        <g id="Group-3">
            <circle id="Mask-Copy" fill="#FF9B9B" cx="106.5" cy="106.5" r="106.5"></circle>
            <text id="✦-copy" font-family="ZapfDingbatsITC, Zapf Dingbats" font-size="13" font-weight="normal" fill="#FFFFFF">
                <tspan x="53" y="90">✦</tspan>
            </text>
            <text id="✦-copy-2" font-family="ZapfDingbatsITC, Zapf Dingbats" font-size="27" font-weight="normal" fill="#FFFFFF">
                <tspan x="152" y="112">✦</tspan>
            </text>
            <text id="✦-copy-3" font-family="ZapfDingbatsITC, Zapf Dingbats" font-size="13" font-weight="normal" fill="#FFFFFF">
                <tspan x="86" y="50">✦</tspan>
            </text>
            <text id="✦-copy-4" font-family="ZapfDingbatsITC, Zapf Dingbats" font-size="13" font-weight="normal" fill="#FFFFFF">
                <tspan x="125" y="178">✦</tspan>
            </text>
            <text id="✦-copy-5" font-family="ZapfDingbatsITC, Zapf Dingbats" font-size="13" font-weight="normal" fill="#FFFFFF">
                <tspan x="71" y="168">✦</tspan>
            </text>
            <g id="Rectangle-377-Copy" opacity="0.180678638">
                <use fill="#FFFFFF" fill-rule="evenodd" xlink:href="#path-1"></use>
                <use stroke="#292929" mask="url(#mask-2)" stroke-width="4" xlink:href="#path-1"></use>
            </g>
            <g id="Group-2-Copy" transform="translate(72.000000, 63.000000)">
                <g id="Rectangle-377">
                    <use fill="#FFFFFF" fill-rule="evenodd" xlink:href="#path-3"></use>
                    <use stroke="#292929" mask="url(#mask-4)" stroke-width="4" xlink:href="#path-3"></use>
                </g>
                <rect id="Rectangle-383" fill="#F5F5F5" x="6" y="51" width="12" height="12"></rect>
                <rect id="Rectangle-383" fill="#F5F5F5" x="21" y="51" width="41" height="12"></rect>
                <rect id="Rectangle-383" fill="#F5F5F5" x="6" y="67" width="12" height="12"></rect>
                <rect id="Rectangle-383" fill="#F5F5F5" x="21" y="67" width="41" height="12"></rect>
                <ellipse id="Oval-92" fill="#FF9B9B" cx="13" cy="36.5" rx="5" ry="1.5"></ellipse>
                <ellipse id="Oval-92-Copy" fill="#FF9B9B" cx="55" cy="36.5" rx="5" ry="1.5"></ellipse>
                <g id="Oval-91">
                    <use fill="#DBDBDB" fill-rule="evenodd" xlink:href="#path-5"></use>
                    <use stroke="#292929" mask="url(#mask-6)" stroke-width="4" xlink:href="#path-5"></use>
                </g>
                <path d="M23.5068214,29.0119873 C23.1773829,28.2175127 22.694918,27.5025298 22.0961941,26.9038059 C20.9199254,25.7275373 19.2949254,25 17.5,25 C15.7050746,25 14.0800746,25.7275373 12.9038059,26.9038059 C12.305082,27.5025298 11.8226171,28.2175127 11.4931786,29.0119873" id="Oval-91" stroke="#292929" stroke-width="2" stroke-linecap="round" stroke-linejoin="round"></path>
                <path d="M55.5068214,29.0119873 C55.1773829,28.2175127 54.694918,27.5025298 54.0961941,26.9038059 C52.9199254,25.7275373 51.2949254,25 49.5,25 C47.7050746,25 46.0800746,25.7275373 44.9038059,26.9038059 C44.305082,27.5025298 43.8226171,28.2175127 43.4931786,29.0119873" id="Oval-91" stroke="#292929" stroke-width="2" stroke-linecap="round" stroke-linejoin="round"></path>
            </g>
            <g id="Group-10-Copy" transform="translate(72.000000, 60.000000)">
                <g id="Group-2" transform="translate(0.000000, 3.000000)">
                    <g id="Rectangle-377">
                        <use fill="#FFFFFF" fill-rule="evenodd" xlink:href="#path-7"></use>
                        <use stroke="#292929" mask="url(#mask-8)" stroke-width="4" xlink:href="#path-7"></use>
                    </g>
                    <rect id="Rectangle-383" fill="#F5F5F5" x="6" y="51" width="12" height="12"></rect>
                    <rect id="Rectangle-383" fill="#F5F5F5" x="21" y="51" width="41" height="12"></rect>
                    <rect id="Rectangle-383" fill="#F5F5F5" x="6" y="67" width="12" height="12"></rect>
                    <rect id="Rectangle-383" fill="#F5F5F5" x="21" y="67" width="41" height="12"></rect>
                    <ellipse id="Oval-92" fill="#FF9B9B" cx="13" cy="36.5" rx="5" ry="1.5"></ellipse>
                    <ellipse id="Oval-92-Copy" fill="#FF9B9B" cx="55" cy="36.5" rx="5" ry="1.5"></ellipse>
                    <path d="M23.5068214,29.0119873 C23.1773829,28.2175127 22.694918,27.5025298 22.0961941,26.9038059 C20.9199254,25.7275373 19.2949254,25 17.5,25 C15.7050746,25 14.0800746,25.7275373 12.9038059,26.9038059 C12.305082,27.5025298 11.8226171,28.2175127 11.4931786,29.0119873" id="Oval-91" stroke="#292929" stroke-width="2" stroke-linecap="round" stroke-linejoin="round"></path>
                    <path d="M39.5068214,38.0119873 C39.1773829,37.2175127 38.694918,36.5025298 38.0961941,35.9038059 C36.9199254,34.7275373 35.2949254,34 33.5,34 C31.7050746,34 30.0800746,34.7275373 28.9038059,35.9038059 C28.305082,36.5025298 27.8226171,37.2175127 27.4931786,38.0119873" id="Oval-91" stroke="#292929" stroke-width="2" stroke-linecap="round" stroke-linejoin="round"></path>
                    <path d="M55.5068214,29.0119873 C55.1773829,28.2175127 54.694918,27.5025298 54.0961941,26.9038059 C52.9199254,25.7275373 51.2949254,25 49.5,25 C47.7050746,25 46.0800746,25.7275373 44.9038059,26.9038059 C44.305082,27.5025298 43.8226171,28.2175127 43.4931786,29.0119873" id="Oval-91" stroke="#292929" stroke-width="2" stroke-linecap="round" stroke-linejoin="round"></path>
                </g>
                <use id="Triangle-6" stroke="#292929" mask="url(#mask-10)" stroke-width="4" fill="#FFFFFF" transform="translate(62.926036, 6.860063) rotate(-139.000000) translate(-62.926036, -6.860063) " xlink:href="#path-9"></use>
                <use id="Triangle-6" stroke="#292929" mask="url(#mask-12)" stroke-width="4" fill="#FFFFFF" transform="translate(62.926036, 6.860063) rotate(-139.000000) translate(-62.926036, -6.860063) " xlink:href="#path-11"></use>
                <path d="M45.5,53 C47.9852814,53 50,51.0233383 50,48.5850026 C50,46.1466668 46.6471834,41.725157 46.6471834,41.725157 C46.0136115,40.8246379 44.9749858,40.8242406 44.3528166,41.725157 C44.3528166,41.725157 41,46.1466668 41,48.5850026 C41,51.0233383 43.0147186,53 45.5,53 Z" id="Oval-94" fill="#7A8FE7"></path>
            </g>
            <g id="Rectangle-419">
                <use fill="#FFFFFF" fill-rule="evenodd" xlink:href="#path-13"></use>
                <use stroke="#292929" mask="url(#mask-14)" stroke-width="4" xlink:href="#path-13"></use>
            </g>
            <rect id="Rectangle-439" fill="#292929" transform="translate(141.000000, 148.500000) rotate(-315.000000) translate(-141.000000, -148.500000) " x="140" y="139" width="2" height="19" rx="1"></rect>
            <rect id="Rectangle-439" fill="#292929" transform="translate(141.000000, 148.500000) scale(-1, 1) rotate(-315.000000) translate(-141.000000, -148.500000) " x="140" y="139" width="2" height="19" rx="1"></rect>
        </g>
    </g>
</svg>