<svg xmlns="http://www.w3.org/2000/svg" viewBox="0 0 16 16"><defs><style>.cls-1{opacity:0;}.cls-2{fill:#fff;}.cls-3{fill:#ed1c24;}.cls-4{fill:#a50427;}.cls-5{fill:#c1272d;}</style></defs><title>love</title><g id="Layer_2" data-name="Layer 2"><g id="Layer_1-2" data-name="Layer 1"><g class="cls-1"><path class="cls-2" d="M15,1V15H1V1H15m1-1H0V16H16V0Z"/></g><path class="cls-3" d="M2.83,9a3.93,3.93,0,0,1,0-5.41,2.79,2.79,0,0,1,2.05-.86A4.44,4.44,0,0,1,8,4.17l.54.56L9,4.17a4.44,4.44,0,0,1,3.08-1.42,2.79,2.79,0,0,1,2.05.86,3.93,3.93,0,0,1,0,5.41L8.5,14.92Z"/><path class="cls-2" d="M3.32,7.16a2.25,2.25,0,0,1,.36-2.61A2.15,2.15,0,0,1,6,4.2S3.83,4.16,3.32,7.16Z"/><path class="cls-4" d="M12.12,2.75a2.79,2.79,0,0,1,2.05.86,3.93,3.93,0,0,1,0,5.41L8.5,14.92,2.83,9a3.93,3.93,0,0,1,0-5.41,2.79,2.79,0,0,1,2.05-.86A4.44,4.44,0,0,1,8,4.17l.54.56L9,4.17a4.44,4.44,0,0,1,3.08-1.42m0-.5A5,5,0,0,0,8.68,3.82L8.5,4l-.18-.19A5,5,0,0,0,4.88,2.25a3.26,3.26,0,0,0-2.41,1,4.45,4.45,0,0,0,0,6.11l5.67,5.89.36.38.36-.38,5.67-5.89a4.45,4.45,0,0,0,0-6.11,3.26,3.26,0,0,0-2.41-1Z"/><path class="cls-5" d="M12.13,2.75a2.78,2.78,0,0,1,2,.86,3.93,3.93,0,0,1,0,5.41L8.5,14.92,2.83,9a3.93,3.93,0,0,1,0-5.41,2.78,2.78,0,0,1,2-.86A4.44,4.44,0,0,1,8,4.17l.54.56L9,4.17a4.44,4.44,0,0,1,3.09-1.42m0-.75A5.17,5.17,0,0,0,8.5,3.65,5.19,5.19,0,0,0,4.87,2,3.47,3.47,0,0,0,2.29,3.09a4.68,4.68,0,0,0,0,6.45L8.5,16l6.21-6.46a4.68,4.68,0,0,0,0-6.45A3.47,3.47,0,0,0,12.13,2Z"/></g></g></svg>