<svg xmlns="http://www.w3.org/2000/svg" viewBox="0 0 16 16"><defs><style>.cls-1{opacity:0;}.cls-2{fill:#fff;}.cls-3{fill:#af7d00;}.cls-4{fill:#ffd60b;}.cls-5{fill:#ffb000;}.cls-6{fill:#ccc;}</style></defs><title>thumbs_down</title><g id="Layer_2" data-name="Layer 2"><g id="Layer_1-2" data-name="Layer 1"><g class="cls-1"><path class="cls-2" d="M15,1V15H1V1H15m1-1H0V16H16V0Z"/></g><rect class="cls-2" x="11.38" y="1.38" width="4.25" height="8.25" rx="1.02" ry="1.02"/><path class="cls-3" d="M14.6,1.75a.65.65,0,0,1,.65.65V8.6a.65.65,0,0,1-.65.65H12.4a.65.65,0,0,1-.65-.65V2.4a.65.65,0,0,1,.65-.65h2.2m0-.75H12.4A1.4,1.4,0,0,0,11,2.4V8.6A1.4,1.4,0,0,0,12.4,10h2.2A1.4,1.4,0,0,0,16,8.6V2.4A1.4,1.4,0,0,0,14.6,1Z"/><path class="cls-4" d="M6,16a2,2,0,0,1-2-2,6.4,6.4,0,0,1,.58-2.72c.11-.28,0-.65-.33-.57,0,0-3.78.63-4.16-1.14A3.33,3.33,0,0,1,0,9C0,6.86,1,3,2,2S3,1,6,1a16.79,16.79,0,0,1,6,1V8a8.8,8.8,0,0,1-1,2c-.88,1.11-3,1-3,3C8,16,6,16,6,16Z"/><path class="cls-3" d="M6,1.75a15.8,15.8,0,0,1,5.25.79V7.87a7.69,7.69,0,0,1-.84,1.67,3.25,3.25,0,0,1-1.06.7c-.89.45-2.1,1.06-2.1,2.76,0,2.13-1.14,2.24-1.24,2.25A1.18,1.18,0,0,1,4.75,14a5.61,5.61,0,0,1,.5-2.38l0-.07a1.28,1.28,0,0,0-.12-1.16A1,1,0,0,0,4.33,10L4.1,10a8.65,8.65,0,0,1-1.3.1c-1.15,0-1.89-.25-2-.66l0-.1C.78,9.19.75,9.06.75,9c0-2.06,1-5.69,1.78-6.47S3.31,1.75,6,1.75M6,1C3,1,3,1,2,2S0,6.86,0,9a3.33,3.33,0,0,0,.09.57c.22,1,1.6,1.25,2.71,1.25a9.86,9.86,0,0,0,1.45-.11h.08c.23,0,.35.33.25.58A6.4,6.4,0,0,0,4,14a2,2,0,0,0,2,2s2,0,2-3c0-2,2.12-1.89,3-3a8.8,8.8,0,0,0,1-2V2A16.79,16.79,0,0,0,6,1Z"/><path class="cls-5" d="M7.25,13A1.33,1.33,0,0,1,6,14.5a1.17,1.17,0,0,1-1.21-1.07c0,.19,0,.39,0,.57A1.17,1.17,0,0,0,6,15.25C6.11,15.24,7.25,15.13,7.25,13Z"/><path class="cls-6" d="M14.6,8H12.4a.4.4,0,0,1-.4-.4v1a.4.4,0,0,0,.4.4h2.2a.4.4,0,0,0,.4-.4v-1A.4.4,0,0,1,14.6,8Z"/><path class="cls-2" d="M2.23,5.69S2.71,3,3.59,2.6a4.18,4.18,0,0,1,2.76,0A6.38,6.38,0,0,0,2.23,5.69Z"/></g></g></svg>