<svg xmlns="http://www.w3.org/2000/svg" viewBox="0 0 16 16"><defs><style>.cls-1{opacity:0;}.cls-2{fill:#fff;}.cls-3{fill:#af7d00;}.cls-4{fill:#ffd60b;}.cls-5{fill:#ffb000;}.cls-6{fill:#ccc;}</style></defs><title>thumbs_up</title><g id="Layer_2" data-name="Layer 2"><g id="Layer_1-2" data-name="Layer 1"><g class="cls-1"><path class="cls-2" d="M15,1V15H1V1H15m1-1H0V16H16V0Z"/></g><rect class="cls-2" x="0.38" y="7.38" width="4.25" height="8.25" rx="1.02" ry="1.02"/><path class="cls-3" d="M3.6,7.75a.65.65,0,0,1,.65.65v6.2a.65.65,0,0,1-.65.65H1.4a.65.65,0,0,1-.65-.65V8.4a.65.65,0,0,1,.65-.65H3.6M3.6,7H1.4A1.4,1.4,0,0,0,0,8.4v6.2A1.4,1.4,0,0,0,1.4,16H3.6A1.4,1.4,0,0,0,5,14.6V8.4A1.4,1.4,0,0,0,3.6,7Z"/><path class="cls-4" d="M10,1a2,2,0,0,1,2,2,6.4,6.4,0,0,1-.58,2.72c-.11.28,0,.65.33.57,0,0,3.78-.63,4.16,1.14A3.33,3.33,0,0,1,16,8c0,2.14-1,6-2,7s-1,1-4,1a16.79,16.79,0,0,1-6-1V9A8.8,8.8,0,0,1,5,7c.88-1.11,3-1,3-3C8,1,10,1,10,1Z"/><path class="cls-3" d="M10,1.75A1.18,1.18,0,0,1,11.25,3a5.61,5.61,0,0,1-.5,2.38l0,.07a1.28,1.28,0,0,0,.12,1.16,1,1,0,0,0,.83.44l.23,0a8.65,8.65,0,0,1,1.3-.1c1.15,0,1.89.25,2,.66l0,.1c0,.12.05.25.05.31,0,2.06-1,5.69-1.78,6.47s-.78.78-3.47.78a15.8,15.8,0,0,1-5.25-.79V9.13a7.69,7.69,0,0,1,.84-1.67,3.25,3.25,0,0,1,1.06-.7C7.54,6.31,8.75,5.7,8.75,4c0-2.09,1.09-2.24,1.26-2.25M10,1S8,1,8,4C8,6,5.88,5.89,5,7A8.8,8.8,0,0,0,4,9v6a16.79,16.79,0,0,0,6,1c3,0,3,0,4-1s2-4.86,2-7a3.33,3.33,0,0,0-.09-.57c-.22-1-1.6-1.25-2.71-1.25a9.86,9.86,0,0,0-1.45.11h-.08c-.23,0-.35-.33-.25-.58A6.4,6.4,0,0,0,12,3a2,2,0,0,0-2-2Z"/><path class="cls-5" d="M15.19,7.68c-.21,2.08-1,4.87-1.72,5.54S12.69,14,10,14a15.75,15.75,0,0,1-5.25-.79v1.25a15.75,15.75,0,0,0,5.25.79c2.69,0,2.69,0,3.47-.78S15.25,10.06,15.25,8c0-.06,0-.19-.05-.31Z"/><path class="cls-6" d="M3.6,14H1.4a.4.4,0,0,1-.4-.4v1a.4.4,0,0,0,.4.4H3.6a.4.4,0,0,0,.4-.4v-1A.4.4,0,0,1,3.6,14Z"/><path class="cls-2" d="M5.46,9S5.9,8.59,7,7.77C7.76,7.16,9.08,6.65,8.75,5,8.58,6.44,6.5,6.56,5.46,9Z"/><ellipse class="cls-2" cx="9.63" cy="2.63" rx="0.81" ry="0.35" transform="translate(0.96 7.58) rotate(-45)"/></g></g></svg>