<?xml version="1.0" encoding="UTF-8"?>
<svg width="64px" height="64px" viewBox="0 0 64 64" version="1.1" xmlns="http://www.w3.org/2000/svg" xmlns:xlink="http://www.w3.org/1999/xlink">
    <!-- Generator: Sketch 52.2 (67145) - http://www.bohemiancoding.com/sketch -->
    <title>grid</title>
    <desc>Created with Sketch.</desc>
    <g id="grid" stroke="none" stroke-width="1" fill="none" fill-rule="evenodd" opacity="0.300000012">
        <g id="Group">
            <path d="M57,56 L64,56 L64,57 L57,57 L57,64 L56,64 L56,57 L49,57 L49,64 L48,64 L48,57 L41,57 L41,64 L40,64 L40,57 L33,57 L33,64 L32,64 L32,57 L25,57 L25,64 L24,64 L24,57 L17,57 L17,64 L16,64 L16,57 L9,57 L9,64 L8,64 L8,57 L1,57 L1,56 L8,56 L8,49 L1,49 L1,48 L8,48 L8,41 L1,41 L1,40 L8,40 L8,33 L1,33 L1,32 L8,32 L8,25 L1,25 L1,24 L8,24 L8,17 L1,17 L1,16 L8,16 L8,9 L1,9 L1,8 L8,8 L8,1 L9,1 L9,8 L16,8 L16,1 L17,1 L17,8 L24,8 L24,1 L25,1 L25,8 L32,8 L32,1 L33,1 L33,8 L40,8 L40,1 L41,1 L41,8 L48,8 L48,1 L49,1 L49,8 L56,8 L56,1 L57,1 L57,8 L64,8 L64,9 L57,9 L57,16 L64,16 L64,17 L57,17 L57,24 L64,24 L64,25 L57,25 L57,32 L64,32 L64,33 L57,33 L57,40 L64,40 L64,41 L57,41 L57,48 L64,48 L64,49 L57,49 L57,56 Z M56,56 L56,49 L49,49 L49,56 L56,56 Z M48,56 L48,49 L41,49 L41,56 L48,56 Z M40,56 L40,49 L33,49 L33,56 L40,56 Z M32,56 L32,49 L25,49 L25,56 L32,56 Z M24,56 L24,49 L17,49 L17,56 L24,56 Z M16,56 L16,49 L9,49 L9,56 L16,56 Z M9,48 L16,48 L16,41 L9,41 L9,48 Z M17,48 L24,48 L24,41 L17,41 L17,48 Z M25,48 L32,48 L32,41 L25,41 L25,48 Z M33,48 L40,48 L40,41 L33,41 L33,48 Z M41,48 L48,48 L48,41 L41,41 L41,48 Z M49,48 L56,48 L56,41 L49,41 L49,48 Z M56,40 L56,33 L49,33 L49,40 L56,40 Z M48,40 L48,33 L41,33 L41,40 L48,40 Z M40,40 L40,33 L33,33 L33,40 L40,40 Z M32,40 L32,33 L25,33 L25,40 L32,40 Z M24,40 L24,33 L17,33 L17,40 L24,40 Z M16,40 L16,33 L9,33 L9,40 L16,40 Z M9,32 L16,32 L16,25 L9,25 L9,32 Z M17,32 L24,32 L24,25 L17,25 L17,32 Z M25,32 L32,32 L32,25 L25,25 L25,32 Z M33,32 L40,32 L40,25 L33,25 L33,32 Z M41,32 L48,32 L48,25 L41,25 L41,32 Z M49,32 L56,32 L56,25 L49,25 L49,32 Z M56,24 L56,17 L49,17 L49,24 L56,24 Z M48,24 L48,17 L41,17 L41,24 L48,24 Z M40,24 L40,17 L33,17 L33,24 L40,24 Z M32,24 L32,17 L25,17 L25,24 L32,24 Z M24,24 L24,17 L17,17 L17,24 L24,24 Z M16,24 L16,17 L9,17 L9,24 L16,24 Z M9,16 L16,16 L16,9 L9,9 L9,16 Z M17,16 L24,16 L24,9 L17,9 L17,16 Z M25,16 L32,16 L32,9 L25,9 L25,16 Z M33,16 L40,16 L40,9 L33,9 L33,16 Z M41,16 L48,16 L48,9 L41,9 L41,16 Z M49,16 L56,16 L56,9 L49,9 L49,16 Z" id="Combined-Shape" fill="#7C7C7C"></path>
            <path d="M1,1 L1,64 L0,64 L0,1 L0,0 L64,0 L64,1 L1,1 Z" id="Combined-Shape" fill="#000000"></path>
        </g>
    </g>
</svg>