<?xml version="1.0" encoding="UTF-8"?>
<svg width="32px" height="32px" viewBox="0 0 32 32" version="1.1" xmlns="http://www.w3.org/2000/svg" xmlns:xlink="http://www.w3.org/1999/xlink">
    <!-- Generator: Sketch 55 (78076) - https://sketchapp.com -->
    <title>favicon-ic</title>
    <desc>Created with Sketch.</desc>
    <g id="favicon-ic" stroke="none" stroke-width="1" fill="none" fill-rule="evenodd">
        <path d="M6,0 L26,0 C29.3137085,-6.08718376e-16 32,2.6862915 32,6 L32,26 C32,29.3137085 29.3137085,32 26,32 L6,32 C2.6862915,32 4.05812251e-16,29.3137085 0,26 L0,6 C-4.05812251e-16,2.6862915 2.6862915,6.08718376e-16 6,0 Z M12.0427307,9.94476828 C12.7506353,8.53184819 13.4414185,7.72269386 15.0609287,7.49182898 C15.279995,7.46071633 15.6224233,7.43817094 15.8752934,7.43817094 C16.128383,7.43817094 16.4708113,7.46071633 16.6898776,7.49182898 C17.9393018,7.66971217 18.7903239,8.11340561 19.7080756,9.94476828 L21.045741,12.6143689 C20.0167001,13.2943381 19.0616325,14.0935724 18.2016107,14.9989956 L16.7941426,12.1805954 C16.6760488,11.9353015 16.4328369,11.7801891 16.1663575,11.7801891 L15.5868634,11.7801891 C15.3206035,11.7801891 15.0773916,11.9353015 14.9592978,12.1805954 L13.5184649,15.0684354 C12.7214411,14.1925467 11.7802023,13.316658 10.7134065,12.5979107 L12.0427307,9.94476828 Z M15.8535624,18.1474604 C15.52628,17.6293672 15.074977,16.963827 14.513263,16.2468834 L15.8766104,13.4127014 L17.1971544,16.1578291 C16.7059015,16.7816602 16.2574522,17.4467495 15.8535624,18.1474604 Z M9.44400732,13.4823667 C12.4718636,15.2821658 14.5413596,18.6472919 15.1035127,19.6354567 L15.1926319,19.7515655 C15.3572609,19.9655213 15.608375,20.0906483 15.8739764,20.0906483 L15.8768299,20.0906483 C16.1656989,20.0906483 16.43591,19.9438777 16.6025145,19.7033183 C16.6112947,19.6913693 16.6191969,19.6785184 16.6273186,19.6656675 C16.6336843,19.6555221 16.6411474,19.6462785 16.6470741,19.6356822 C16.6466351,19.6352312 16.6464156,19.6350058 16.6457571,19.6345549 C16.6516837,19.6248604 16.6582689,19.6156167 16.663537,19.6050204 C19.1294596,14.7406253 23.9642836,11.6023059 29.2879459,11.4070628 C29.6286181,11.3946628 29.9354866,11.1536525 29.9899239,10.8080316 C30.0625801,10.3447236 29.705884,9.95378644 29.2758731,9.96844095 C26.7853659,10.0536626 24.392758,10.7293481 22.2565323,11.8879561 L20.9528903,9.28666812 C20.0981366,7.58065785 19.0787539,6.38011541 16.8819448,6.06741074 C16.5987829,6.02705448 16.1944541,6 15.8752934,6 C15.5563522,6 15.1520234,6.02705448 14.8688616,6.06741074 C12.6720524,6.38011541 11.6526698,7.58065785 10.7979161,9.28666812 L10.7976966,9.28666812 L9.02014256,12.8341865 C8.93453549,13.0053061 8.99446044,13.2154292 9.15667487,13.311698 L9.44400732,13.4823667 Z M29.2657539,15.13898 C25.3449501,15.3344486 21.538289,17.7932497 19.5680093,21.4025424 C19.163022,22.144286 18.5776013,22.9678694 18.0586908,23.675344 C17.4074185,24.5629563 16.764268,24.56228 15.8748325,24.5618291 C14.9856164,24.5627309 14.3435634,24.5631818 13.6922911,23.675344 C13.2741335,23.1056218 12.8924138,22.5264305 12.5054259,21.9014721 C10.7221648,19.0237775 8.75868979,17.4253088 7.45175517,16.6797325 C7.28098004,16.5823364 7.06608434,16.6506489 6.97433112,16.8276303 L5.67354265,19.3364822 L5.67354265,19.3367076 L4.3859245,21.8200832 C3.87798921,22.8003571 3.87118455,23.8070091 4.36704704,24.655167 C4.83678841,25.4591359 5.72161431,25.9990982 6.5684658,25.9990982 C6.5684658,25.9990982 7.90283858,26 7.9531053,26 C8.98499976,26 10.4480027,25.9039566 11.3341456,23.697664 L11.6034786,23.1103563 C11.9110056,23.5880933 12.2299468,24.0716921 12.5741311,24.5408618 C13.6209519,25.9679855 14.8251581,26 15.8056883,26 L15.9441961,26 C16.9256044,26 18.1298105,25.9677601 19.1768508,24.5408618 C19.5034747,24.0955902 19.8555613,23.6047769 20.1815266,23.1078763 L20.4095927,23.6796276 C21.2948576,25.9035057 22.7631286,26 23.7976571,26 C23.8479238,26 25.1822966,25.9990982 25.1822966,25.9990982 C26.0291481,25.9990982 26.913974,25.4591359 27.3837154,24.655167 C27.8797974,23.8070091 27.8727732,22.8003571 27.3648379,21.8200832 C26.4062582,19.9711351 25.7194261,18.6504257 25.3234385,17.8949294 C25.2922688,17.8358605 25.2650501,17.7835552 25.239368,17.7348571 C26.5076697,17.0639061 27.8931872,16.6531289 29.2973627,16.5773764 C29.6378154,16.5588891 29.9418303,16.3167516 29.9918775,15.9704543 C30.0590461,15.5048918 29.7001549,15.1173364 29.2657539,15.13898 Z M26.1288035,22.4959942 C26.4045022,23.0278402 26.4229406,23.5053517 26.1834603,23.9147761 C25.9380534,24.334346 25.4845554,24.5609272 25.1822966,24.5609272 L23.938799,24.5613782 C22.9738537,24.5661127 22.2762658,24.5690436 21.7053325,23.1349308 L21.0907176,21.5939529 C21.8585472,20.3595923 22.8735398,19.2999586 24.0371374,18.4745716 C24.3222748,19.0179157 24.9114271,20.1476656 26.1288035,22.4959942 Z M10.0454299,23.1353817 C9.47449661,24.5690436 8.77800626,24.5661127 7.81196338,24.5613782 L6.5684658,24.5609272 C6.26620699,24.5609272 5.81270902,24.334346 5.56730208,23.9147761 C5.32782179,23.5053517 5.34626023,23.0278402 5.6219589,22.4962197 L6.90935755,20.0126187 C6.90957705,20.0126187 6.90957705,20.0123932 6.90957705,20.0123932 L7.7298684,18.4301572 C9.03438846,19.3817984 9.90055641,20.5079411 10.6988972,21.7089344 C10.5110007,22.1181334 10.048942,23.1261381 10.0454299,23.1353817 Z" id="Combined-Shape" fill="#000000" fill-rule="nonzero"></path>
    </g>
</svg>