<?xml version="1.0" encoding="UTF-8"?>
<svg width="8px" height="8px" viewBox="0 0 8 8" version="1.1" xmlns="http://www.w3.org/2000/svg" xmlns:xlink="http://www.w3.org/1999/xlink">
    <!-- Generator: Sketch 46.2 (44496) - http://www.bohemiancoding.com/sketch -->
    <title>Group 3</title>
    <desc>Created with Sketch.</desc>
    <defs></defs>
    <g id="Page-1" stroke="none" stroke-width="1" fill="none" fill-rule="evenodd">
        <g id="Second-Step" transform="translate(-756.000000, -283.000000)">
            <g id="Steps" transform="translate(620.000000, 277.000000)">
                <g id="Group-2" transform="translate(124.000000, 0.000000)">
                    <g id="Group-3" transform="translate(12.000000, 6.000000)">
                        <rect id="Rectangle-9" fill="#75C9A5" x="0" y="0" width="8" height="8" rx="4"></rect>
                        <path d="M3.08329253,6.2807783 L1.33923398,4.54312745 C1.25069126,4.45516725 1.20001221,4.33225598 1.20001221,4.20701463 C1.20001221,4.08119077 1.25069126,3.9582795 1.33923398,3.8703193 L1.81515109,3.39556722 C1.99223653,3.2190643 2.3137864,3.2190643 2.49087184,3.39556722 L3.42057038,4.32526576 L5.61724532,2.13266845 C5.79491328,1.95558301 6.11588063,1.95616553 6.29296607,2.13208593 L6.7694657,2.60683801 C6.85800842,2.69538072 6.90868747,2.81770948 6.90868747,2.94353334 C6.90868747,3.06877469 6.8574259,3.19168596 6.7694657,3.27964616 L3.75843075,6.2807783 C3.66988804,6.36932102 3.54697676,6.42000008 3.42057038,6.42000008 C3.29474652,6.42000008 3.17125273,6.36932102 3.08329253,6.2807783 Z" id="Shape" fill="#FFFFFF" fill-rule="nonzero"></path>
                    </g>
                </g>
            </g>
        </g>
    </g>
</svg>