<?xml version="1.0" encoding="UTF-8"?>
<svg width="48px" height="36px" viewBox="0 0 48 36" version="1.1" xmlns="http://www.w3.org/2000/svg" xmlns:xlink="http://www.w3.org/1999/xlink">
    <!-- Generator: Sketch 46.2 (44496) - http://www.bohemiancoding.com/sketch -->
    <title>Path</title>
    <desc>Created with Sketch.</desc>
    <defs></defs>
    <g id="Page-1" stroke="none" stroke-width="1" fill="none" fill-rule="evenodd">
        <g id="Finish" transform="translate(-757.000000, -218.000000)" fill="#36BA82">
            <g id="Group-3" transform="translate(724.000000, 178.000000)">
                <path d="M78.8862865,49.3861973 L54.3402865,73.9311973 C54.2462865,74.0251973 54.1512865,74.1201973 54.0332865,74.2141973 C53.9622865,74.3081973 53.8922865,74.3551973 53.8212865,74.4261973 C53.4672865,74.7331973 53.1142865,74.9921973 52.7842865,75.2281973 C52.7612865,75.2521973 52.7612865,75.2281973 52.7612865,75.2521973 C52.4072865,75.4641973 52.0772865,75.6531973 51.7242865,75.7471973 C51.3942865,75.8651973 51.0642865,75.9361973 50.7342865,75.9831973 L50.2392865,75.9831973 C49.3432865,75.9361973 48.4472865,75.6531973 47.6692865,75.0641973 C47.5982865,75.0401973 47.5282865,74.9931973 47.4572865,74.9231973 C47.2212865,74.8051973 47.0562865,74.6161973 46.8682865,74.4511973 C46.7742865,74.3801973 46.6792865,74.2861973 46.6092865,74.2151973 L35.1002865,62.7311973 C33.6622865,61.2691973 32.9542865,59.9021973 33.0022865,58.6281973 C33.0492865,57.3311973 33.6152865,56.1761973 34.7002865,55.0911973 C35.7852865,54.0061973 36.9872865,53.4171973 38.2842865,53.3461973 C39.5572865,53.2991973 40.9252865,54.0061973 42.3872865,55.4451973 L50.3332865,63.3911973 L71.6242865,42.1241973 C73.0622865,40.6621973 74.4302865,39.9551973 75.7272865,40.0021973 C77.0002865,40.0491973 78.1792865,40.6391973 79.2642865,41.7231973 C80.3492865,42.8081973 80.9382865,43.9861973 80.9852865,45.2601973 C81.0322865,46.5561973 80.3482865,47.9241973 78.8862865,49.3861973 Z" id="Path"></path>
            </g>
        </g>
    </g>
</svg>