<svg xmlns="http://www.w3.org/2000/svg" viewBox="0 0 12 12"><title>thumbs_up_outline</title><g id="Layer_2" data-name="Layer 2"><g id="Layer_1-2" data-name="Layer 1"><path d="M2.7,6a.29.29,0,0,1,.3.3V11a.29.29,0,0,1-.3.3H1.05a.29.29,0,0,1-.3-.3V6.3a.29.29,0,0,1,.3-.3H2.7m0-.75H1.05a1,1,0,0,0-1,1V11A1,1,0,0,0,1.05,12H2.7a1,1,0,0,0,1-1.05V6.3a1,1,0,0,0-1-1Z"/><path d="M7.5.5c.13,0,1,0,1,.75a11.42,11.42,0,0,1-.4,2.86.55.55,0,0,0,.06.51c.2.29.77.44,1.72.44h.19l.07,0a2.6,2.6,0,0,1,.75-.14c.45,0,.61.18.61.66V6c0,1.59-.75,4.29-1.35,4.9s-.61.6-2.65.6a12,12,0,0,1-4-.61V6.84a5.66,5.66,0,0,1,.64-1.28,6.8,6.8,0,0,1,.66-.67A4.17,4.17,0,0,0,6.5,2C6.5.61,7.33.51,7.5.5m0-.5S6,0,6,2C6,3.47,4.41,4.42,3.75,5.25A6.67,6.67,0,0,0,3,6.75v4.5A12.58,12.58,0,0,0,7.5,12c2.25,0,2.25,0,3-.75S12,7.6,12,6V5.54a1,1,0,0,0-1.11-1.16,2.85,2.85,0,0,0-.93.18H9.88c-.4,0-1.39-.08-1.31-.27a11.5,11.5,0,0,0,.43-3C9,0,7.5,0,7.5,0Z"/><path d="M2.7,6a.29.29,0,0,1,.3.3V11a.29.29,0,0,1-.3.3H1.05a.29.29,0,0,1-.3-.3V6.3a.29.29,0,0,1,.3-.3H2.7m0-.75H1.05a1,1,0,0,0-1,1V11A1,1,0,0,0,1.05,12H2.7a1,1,0,0,0,1-1.05V6.3a1,1,0,0,0-1-1Z"/><path d="M7.41.51c.13,0,1,0,1,.74A11.27,11.27,0,0,1,8,4.1a.56.56,0,0,0,.05.52c.2.3.79.44,1.75.44H10l.07,0a2.55,2.55,0,0,1,.77-.14c.46,0,.62.17.62.65V6c0,1.59-.76,4.28-1.37,4.89s-.62.6-2.71.6a12.51,12.51,0,0,1-4.09-.6V6.84A5.28,5.28,0,0,1,4,5.57a7,7,0,0,1,.67-.67A4.16,4.16,0,0,0,6.38,2c0-1.39.85-1.49,1-1.49m0-.51S5.88,0,5.88,2c0,1.47-1.63,2.42-2.3,3.25a6.63,6.63,0,0,0-.77,1.5v4.5a13.12,13.12,0,0,0,4.6.75c2.29,0,2.29,0,3.06-.75S12,7.6,12,6V5.54a1,1,0,0,0-1.13-1.16,3,3,0,0,0-.95.18H9.83c-.4,0-1.41-.08-1.34-.27a11,11,0,0,0,.45-3C8.94,0,7.41,0,7.41,0Z"/></g></g></svg>