<svg xmlns="http://www.w3.org/2000/svg" viewBox="0 0 16 16"><defs><style>.cls-1{opacity:0;}.cls-2{fill:#fff;}.cls-3{fill:#ffd60b;}.cls-4{fill:#af7d00;}.cls-5{fill:#ffb000;}.cls-6,.cls-7{fill:none;stroke-miterlimit:10;}.cls-6{stroke:red;}.cls-7{stroke:#00a4ff;}.cls-8{fill:#bf0fce;}.cls-9{fill:red;}.cls-10{fill:#00a4ff;}</style></defs><title>party</title><g id="Layer_2" data-name="Layer 2"><g id="Layer_1-2" data-name="Layer 1"><g class="cls-1"><path class="cls-2" d="M15,1V15H1V1H15m1-1H0V16H16V0Z"/></g><polygon class="cls-3" points="5 3 13 11 0 16 5 3"/><path class="cls-4" d="M5.29,4.35l6.36,6.36-10.34,4,4-10.34M5,3,0,16l13-5L5,3Z"/><polygon class="cls-5" points="3 13 1.31 14.69 11.65 10.71 10.68 9.74 3 13"/><path class="cls-6" d="M8.44,3.5s1-3-3-3"/><path class="cls-7" d="M12.5,7.56s3-1,3,3"/><path class="cls-6" d="M10.5,4.5s2,1,2-1a1,1,0,0,1,1-1s2,0,1-2"/><polygon class="cls-2" points="7.3 8.7 5.68 3.84 9.73 6.27 12.16 10.32 7.3 8.7"/><path class="cls-4" d="M6.35,4.69l3.1,1.86,1.86,3.1L7.59,8.41,6.35,4.69M5,3,7,9l6,2L10,6,5,3Z"/><rect class="cls-8" x="14" y="4" width="1" height="2"/><rect class="cls-9" x="14" y="12" width="1" height="1"/><rect class="cls-9" x="15" y="13" width="1" height="1"/><rect class="cls-8" x="3" y="1" width="1" height="1"/><rect class="cls-10" x="9" width="1" height="1"/><rect class="cls-10" x="10" y="2" width="1" height="1"/><rect class="cls-10" x="11" y="1" width="1" height="1"/><rect class="cls-10" x="12" y="14" width="2" height="1"/><path class="cls-2" d="M3.07,11,4.76,6.75A3.28,3.28,0,0,1,3.07,11Z"/></g></g></svg>