<svg xmlns="http://www.w3.org/2000/svg" viewBox="0 0 16 16"><defs><style>.cls-1{opacity:0;}.cls-2{fill:#fff;}.cls-3{fill:#ffd60b;}.cls-4{fill:#ffb000;}.cls-5{fill:#af7d00;}</style></defs><title>happy</title><g id="Layer_2" data-name="Layer 2"><g id="Layer_1-2" data-name="Layer 1"><g class="cls-1"><path class="cls-2" d="M15,1V15H1V1H15m1-1H0V16H16V0Z"/></g><circle class="cls-3" cx="7.5" cy="8.5" r="7.5"/><path class="cls-2" d="M8.53,2A4.58,4.58,0,0,0,8,2,7.1,7.1,0,0,0,1.27,7,13.11,13.11,0,0,1,8.53,2Z"/><path class="cls-4" d="M11.94,3.36a6.79,6.79,0,0,1-9.58,9.58,6.79,6.79,0,1,0,9.58-9.58Z"/><path class="cls-5" d="M7.5,1.75A6.75,6.75,0,1,1,.75,8.5,6.76,6.76,0,0,1,7.5,1.75M7.5,1A7.5,7.5,0,1,0,15,8.5,7.5,7.5,0,0,0,7.5,1Z"/><path class="cls-2" d="M8.5,12.62A4.35,4.35,0,0,1,4.39,8.38h8.22A4.35,4.35,0,0,1,8.5,12.62Z"/><path class="cls-5" d="M12.19,8.75a3.92,3.92,0,0,1-3.69,3.5,3.92,3.92,0,0,1-3.69-3.5h7.38M13,8H4a4.77,4.77,0,0,0,4.5,5A4.77,4.77,0,0,0,13,8Z"/><rect x="6" y="5" width="2" height="2"/><rect x="10" y="5" width="2" height="2"/></g></g></svg>