<?xml version="1.0" encoding="UTF-8" standalone="no"?>
<svg width="213px" height="213px" viewBox="0 0 213 213" version="1.1" xmlns="http://www.w3.org/2000/svg" xmlns:xlink="http://www.w3.org/1999/xlink">
    <!-- Generator: Sketch 3.8.3 (29802) - http://www.bohemiancoding.com/sketch -->
    <title>Slice 1</title>
    <desc>Created with Sketch.</desc>
    <defs>
        <circle id="path-1" cx="106.5" cy="106.5" r="106.5"></circle>
        <rect id="path-3" x="62" y="182" width="9" height="27"></rect>
        <mask id="mask-4" maskContentUnits="userSpaceOnUse" maskUnits="objectBoundingBox" x="0" y="0" width="9" height="27" fill="white">
            <use xlink:href="#path-3"></use>
        </mask>
        <rect id="path-5" x="142" y="182" width="9" height="27"></rect>
        <mask id="mask-6" maskContentUnits="userSpaceOnUse" maskUnits="objectBoundingBox" x="0" y="0" width="9" height="27" fill="white">
            <use xlink:href="#path-5"></use>
        </mask>
        <rect id="path-7" x="20" y="175" width="173" height="7" rx="3.5"></rect>
        <mask id="mask-8" maskContentUnits="userSpaceOnUse" maskUnits="objectBoundingBox" x="-2" y="-2" width="177" height="11">
            <rect x="18" y="173" width="177" height="11" fill="white"></rect>
            <use xlink:href="#path-7" fill="black"></use>
        </mask>
        <circle id="path-9" cx="59" cy="71" r="17"></circle>
        <mask id="mask-10" maskContentUnits="userSpaceOnUse" maskUnits="objectBoundingBox" x="0" y="0" width="34" height="34" fill="white">
            <use xlink:href="#path-9"></use>
        </mask>
        <rect id="path-11" x="0" y="63" width="118" height="80" rx="5"></rect>
        <filter x="-50%" y="-50%" width="200%" height="200%" filterUnits="objectBoundingBox" id="filter-12">
            <feOffset dx="0" dy="3" in="SourceAlpha" result="shadowOffsetInner1"></feOffset>
            <feComposite in="shadowOffsetInner1" in2="SourceAlpha" operator="arithmetic" k2="-1" k3="1" result="shadowInnerInner1"></feComposite>
            <feColorMatrix values="0 0 0 0 1   0 0 0 0 1   0 0 0 0 1  0 0 0 0.651324728 0" type="matrix" in="shadowInnerInner1"></feColorMatrix>
        </filter>
        <mask id="mask-13" maskContentUnits="userSpaceOnUse" maskUnits="objectBoundingBox" x="0" y="0" width="118" height="80" fill="white">
            <use xlink:href="#path-11"></use>
        </mask>
        <rect id="path-14" x="0" y="0" width="80" height="63" rx="7"></rect>
        <filter x="-50%" y="-50%" width="200%" height="200%" filterUnits="objectBoundingBox" id="filter-16">
            <feOffset dx="5" dy="5" in="SourceAlpha" result="shadowOffsetInner1"></feOffset>
            <feComposite in="shadowOffsetInner1" in2="SourceAlpha" operator="arithmetic" k2="-1" k3="1" result="shadowInnerInner1"></feComposite>
            <feColorMatrix values="0 0 0 0 0   0 0 0 0 0   0 0 0 0 0  0 0 0 0.5 0" type="matrix" in="shadowInnerInner1"></feColorMatrix>
        </filter>
        <mask id="mask-17" maskContentUnits="userSpaceOnUse" maskUnits="objectBoundingBox" x="-2" y="-2" width="84" height="67">
            <rect x="-2" y="-2" width="84" height="67" fill="white"></rect>
            <use xlink:href="#path-14" fill="black"></use>
        </mask>
        <rect id="path-18" x="0" y="0" width="80" height="63" rx="7"></rect>
        <filter x="-50%" y="-50%" width="200%" height="200%" filterUnits="objectBoundingBox" id="filter-20">
            <feOffset dx="-1" dy="-5" in="SourceAlpha" result="shadowOffsetInner1"></feOffset>
            <feComposite in="shadowOffsetInner1" in2="SourceAlpha" operator="arithmetic" k2="-1" k3="1" result="shadowInnerInner1"></feComposite>
            <feColorMatrix values="0 0 0 0 0   0 0 0 0 0   0 0 0 0 0  0 0 0 0.0301743659 0" type="matrix" in="shadowInnerInner1"></feColorMatrix>
        </filter>
        <mask id="mask-21" maskContentUnits="userSpaceOnUse" maskUnits="objectBoundingBox" x="-2" y="-2" width="84" height="67">
            <rect x="-2" y="-2" width="84" height="67" fill="white"></rect>
            <use xlink:href="#path-18" fill="black"></use>
        </mask>
    </defs>
    <g id="Page-1" stroke="none" stroke-width="1" fill="none" fill-rule="evenodd">
        <g id="Group-7">
            <g id="Rectangle-4-+-Rectangle-4-Mask">
                <mask id="mask-2" fill="white">
                    <use xlink:href="#path-1"></use>
                </mask>
                <use id="Mask" fill="#FFDC76" xlink:href="#path-1"></use>
                <g id="Rectangle-56" mask="url(#mask-2)" stroke-width="4" stroke="#292929" fill="#69615F">
                    <use mask="url(#mask-4)" xlink:href="#path-3"></use>
                </g>
                <g id="Rectangle-56" mask="url(#mask-2)" stroke-width="4" stroke="#292929" fill="#69615F">
                    <use mask="url(#mask-6)" xlink:href="#path-5"></use>
                </g>
            </g>
            <g id="Rectangle-8">
                <use fill="#69615F" fill-rule="evenodd" xlink:href="#path-7"></use>
                <use stroke="#292929" mask="url(#mask-8)" stroke-width="4" xlink:href="#path-7"></use>
            </g>
            <g id="Group-4" transform="translate(48.000000, 32.000000)">
                <use id="Oval-15" stroke="#292929" mask="url(#mask-10)" stroke-width="4" fill="#8A7C78" xlink:href="#path-9"></use>
                <circle id="Oval-13" fill="#9FFF74" cx="100" cy="133" r="1"></circle>
                <circle id="Oval-13" fill="#9FFF74" cx="103" cy="133" r="1"></circle>
                <polyline id="Path-7" stroke="#292929" stroke-width="2" points="50.875 57.0449219 33.3125 40.0859375 45.921875 3.484375"></polyline>
                <polyline id="Path-7" stroke="#292929" stroke-width="2" transform="translate(71.258789, 45.262207) scale(-1, 1) translate(-71.258789, -45.262207) " points="76.4941406 56.6826172 66.0234375 46.7353516 69.8203125 33.8417969"></polyline>
                <circle id="Oval-16" fill="#292929" cx="46" cy="3" r="3"></circle>
                <circle id="Oval-16" fill="#292929" cx="72" cy="32" r="3"></circle>
                <g id="Rectangle-4">
                    <use fill="#8A7C78" fill-rule="evenodd" xlink:href="#path-11"></use>
                    <use fill="black" fill-opacity="1" filter="url(#filter-12)" xlink:href="#path-11"></use>
                    <use stroke="#292929" mask="url(#mask-13)" stroke-width="4" xlink:href="#path-11"></use>
                </g>
                <circle id="Oval-11" stroke="#292929" fill="#D8D8D8" cx="97" cy="132" r="4"></circle>
                <circle id="Oval-11" stroke="#292929" fill="#D8D8D8" cx="110" cy="132" r="3"></circle>
                <g id="Group-6" transform="translate(91.000000, 78.000000)" fill="#292929">
                    <g id="Group-3" transform="translate(0.000000, 30.000000)">
                        <rect id="Rectangle-10" x="0" y="0" width="2" height="2"></rect>
                        <rect id="Rectangle-10-Copy-8" x="0" y="3" width="2" height="2"></rect>
                        <rect id="Rectangle-10-Copy-2" x="6" y="0" width="2" height="2"></rect>
                        <rect id="Rectangle-10-Copy-9" x="6" y="3" width="2" height="2"></rect>
                        <rect id="Rectangle-10-Copy" x="3" y="0" width="2" height="2"></rect>
                        <rect id="Rectangle-10-Copy-10" x="3" y="3" width="2" height="2"></rect>
                        <rect id="Rectangle-10-Copy-3" x="9" y="0" width="2" height="2"></rect>
                        <rect id="Rectangle-10-Copy-11" x="9" y="3" width="2" height="2"></rect>
                        <rect id="Rectangle-10-Copy-5" x="12" y="0" width="2" height="2"></rect>
                        <rect id="Rectangle-10-Copy-12" x="12" y="3" width="2" height="2"></rect>
                        <rect id="Rectangle-10-Copy-4" x="15" y="0" width="2" height="2"></rect>
                        <rect id="Rectangle-10-Copy-13" x="15" y="3" width="2" height="2"></rect>
                        <rect id="Rectangle-10-Copy-7" x="18" y="0" width="2" height="2"></rect>
                        <rect id="Rectangle-10-Copy-14" x="18" y="3" width="2" height="2"></rect>
                        <rect id="Rectangle-10-Copy-6" x="21" y="0" width="2" height="2"></rect>
                        <rect id="Rectangle-10-Copy-15" x="21" y="3" width="2" height="2"></rect>
                        <rect id="Rectangle-10-Copy-23" x="0" y="6" width="2" height="2"></rect>
                        <rect id="Rectangle-10-Copy-22" x="6" y="6" width="2" height="2"></rect>
                        <rect id="Rectangle-10-Copy-21" x="3" y="6" width="2" height="2"></rect>
                        <rect id="Rectangle-10-Copy-20" x="9" y="6" width="2" height="2"></rect>
                        <rect id="Rectangle-10-Copy-19" x="12" y="6" width="2" height="2"></rect>
                        <rect id="Rectangle-10-Copy-18" x="15" y="6" width="2" height="2"></rect>
                        <rect id="Rectangle-10-Copy-17" x="18" y="6" width="2" height="2"></rect>
                        <rect id="Rectangle-10-Copy-16" x="21" y="6" width="2" height="2"></rect>
                        <rect id="Rectangle-10-Copy-31" x="0" y="9" width="2" height="2"></rect>
                        <rect id="Rectangle-10-Copy-30" x="6" y="9" width="2" height="2"></rect>
                        <rect id="Rectangle-10-Copy-29" x="3" y="9" width="2" height="2"></rect>
                        <rect id="Rectangle-10-Copy-28" x="9" y="9" width="2" height="2"></rect>
                        <rect id="Rectangle-10-Copy-27" x="12" y="9" width="2" height="2"></rect>
                        <rect id="Rectangle-10-Copy-26" x="15" y="9" width="2" height="2"></rect>
                        <rect id="Rectangle-10-Copy-25" x="18" y="9" width="2" height="2"></rect>
                        <rect id="Rectangle-10-Copy-24" x="21" y="9" width="2" height="2"></rect>
                        <rect id="Rectangle-10-Copy-39" x="0" y="12" width="2" height="2"></rect>
                        <rect id="Rectangle-10-Copy-38" x="6" y="12" width="2" height="2"></rect>
                        <rect id="Rectangle-10-Copy-37" x="3" y="12" width="2" height="2"></rect>
                        <rect id="Rectangle-10-Copy-36" x="9" y="12" width="2" height="2"></rect>
                        <rect id="Rectangle-10-Copy-35" x="12" y="12" width="2" height="2"></rect>
                        <rect id="Rectangle-10-Copy-34" x="15" y="12" width="2" height="2"></rect>
                        <rect id="Rectangle-10-Copy-33" x="18" y="12" width="2" height="2"></rect>
                        <rect id="Rectangle-10-Copy-32" x="21" y="12" width="2" height="2"></rect>
                    </g>
                    <g id="Group-3" transform="translate(0.000000, 15.000000)">
                        <rect id="Rectangle-10" x="0" y="0" width="2" height="2"></rect>
                        <rect id="Rectangle-10-Copy-8" x="0" y="3" width="2" height="2"></rect>
                        <rect id="Rectangle-10-Copy-2" x="6" y="0" width="2" height="2"></rect>
                        <rect id="Rectangle-10-Copy-9" x="6" y="3" width="2" height="2"></rect>
                        <rect id="Rectangle-10-Copy" x="3" y="0" width="2" height="2"></rect>
                        <rect id="Rectangle-10-Copy-10" x="3" y="3" width="2" height="2"></rect>
                        <rect id="Rectangle-10-Copy-3" x="9" y="0" width="2" height="2"></rect>
                        <rect id="Rectangle-10-Copy-11" x="9" y="3" width="2" height="2"></rect>
                        <rect id="Rectangle-10-Copy-5" x="12" y="0" width="2" height="2"></rect>
                        <rect id="Rectangle-10-Copy-12" x="12" y="3" width="2" height="2"></rect>
                        <rect id="Rectangle-10-Copy-4" x="15" y="0" width="2" height="2"></rect>
                        <rect id="Rectangle-10-Copy-13" x="15" y="3" width="2" height="2"></rect>
                        <rect id="Rectangle-10-Copy-7" x="18" y="0" width="2" height="2"></rect>
                        <rect id="Rectangle-10-Copy-14" x="18" y="3" width="2" height="2"></rect>
                        <rect id="Rectangle-10-Copy-6" x="21" y="0" width="2" height="2"></rect>
                        <rect id="Rectangle-10-Copy-15" x="21" y="3" width="2" height="2"></rect>
                        <rect id="Rectangle-10-Copy-23" x="0" y="6" width="2" height="2"></rect>
                        <rect id="Rectangle-10-Copy-22" x="6" y="6" width="2" height="2"></rect>
                        <rect id="Rectangle-10-Copy-21" x="3" y="6" width="2" height="2"></rect>
                        <rect id="Rectangle-10-Copy-20" x="9" y="6" width="2" height="2"></rect>
                        <rect id="Rectangle-10-Copy-19" x="12" y="6" width="2" height="2"></rect>
                        <rect id="Rectangle-10-Copy-18" x="15" y="6" width="2" height="2"></rect>
                        <rect id="Rectangle-10-Copy-17" x="18" y="6" width="2" height="2"></rect>
                        <rect id="Rectangle-10-Copy-16" x="21" y="6" width="2" height="2"></rect>
                        <rect id="Rectangle-10-Copy-31" x="0" y="9" width="2" height="2"></rect>
                        <rect id="Rectangle-10-Copy-30" x="6" y="9" width="2" height="2"></rect>
                        <rect id="Rectangle-10-Copy-29" x="3" y="9" width="2" height="2"></rect>
                        <rect id="Rectangle-10-Copy-28" x="9" y="9" width="2" height="2"></rect>
                        <rect id="Rectangle-10-Copy-27" x="12" y="9" width="2" height="2"></rect>
                        <rect id="Rectangle-10-Copy-26" x="15" y="9" width="2" height="2"></rect>
                        <rect id="Rectangle-10-Copy-25" x="18" y="9" width="2" height="2"></rect>
                        <rect id="Rectangle-10-Copy-24" x="21" y="9" width="2" height="2"></rect>
                        <rect id="Rectangle-10-Copy-39" x="0" y="12" width="2" height="2"></rect>
                        <rect id="Rectangle-10-Copy-38" x="6" y="12" width="2" height="2"></rect>
                        <rect id="Rectangle-10-Copy-37" x="3" y="12" width="2" height="2"></rect>
                        <rect id="Rectangle-10-Copy-36" x="9" y="12" width="2" height="2"></rect>
                        <rect id="Rectangle-10-Copy-35" x="12" y="12" width="2" height="2"></rect>
                        <rect id="Rectangle-10-Copy-34" x="15" y="12" width="2" height="2"></rect>
                        <rect id="Rectangle-10-Copy-33" x="18" y="12" width="2" height="2"></rect>
                        <rect id="Rectangle-10-Copy-32" x="21" y="12" width="2" height="2"></rect>
                    </g>
                    <g id="Group-3">
                        <rect id="Rectangle-10" x="0" y="0" width="2" height="2"></rect>
                        <rect id="Rectangle-10-Copy-8" x="0" y="3" width="2" height="2"></rect>
                        <rect id="Rectangle-10-Copy-2" x="6" y="0" width="2" height="2"></rect>
                        <rect id="Rectangle-10-Copy-9" x="6" y="3" width="2" height="2"></rect>
                        <rect id="Rectangle-10-Copy" x="3" y="0" width="2" height="2"></rect>
                        <rect id="Rectangle-10-Copy-10" x="3" y="3" width="2" height="2"></rect>
                        <rect id="Rectangle-10-Copy-3" x="9" y="0" width="2" height="2"></rect>
                        <rect id="Rectangle-10-Copy-11" x="9" y="3" width="2" height="2"></rect>
                        <rect id="Rectangle-10-Copy-5" x="12" y="0" width="2" height="2"></rect>
                        <rect id="Rectangle-10-Copy-12" x="12" y="3" width="2" height="2"></rect>
                        <rect id="Rectangle-10-Copy-4" x="15" y="0" width="2" height="2"></rect>
                        <rect id="Rectangle-10-Copy-13" x="15" y="3" width="2" height="2"></rect>
                        <rect id="Rectangle-10-Copy-7" x="18" y="0" width="2" height="2"></rect>
                        <rect id="Rectangle-10-Copy-14" x="18" y="3" width="2" height="2"></rect>
                        <rect id="Rectangle-10-Copy-6" x="21" y="0" width="2" height="2"></rect>
                        <rect id="Rectangle-10-Copy-15" x="21" y="3" width="2" height="2"></rect>
                        <rect id="Rectangle-10-Copy-23" x="0" y="6" width="2" height="2"></rect>
                        <rect id="Rectangle-10-Copy-22" x="6" y="6" width="2" height="2"></rect>
                        <rect id="Rectangle-10-Copy-21" x="3" y="6" width="2" height="2"></rect>
                        <rect id="Rectangle-10-Copy-20" x="9" y="6" width="2" height="2"></rect>
                        <rect id="Rectangle-10-Copy-19" x="12" y="6" width="2" height="2"></rect>
                        <rect id="Rectangle-10-Copy-18" x="15" y="6" width="2" height="2"></rect>
                        <rect id="Rectangle-10-Copy-17" x="18" y="6" width="2" height="2"></rect>
                        <rect id="Rectangle-10-Copy-16" x="21" y="6" width="2" height="2"></rect>
                        <rect id="Rectangle-10-Copy-31" x="0" y="9" width="2" height="2"></rect>
                        <rect id="Rectangle-10-Copy-30" x="6" y="9" width="2" height="2"></rect>
                        <rect id="Rectangle-10-Copy-29" x="3" y="9" width="2" height="2"></rect>
                        <rect id="Rectangle-10-Copy-28" x="9" y="9" width="2" height="2"></rect>
                        <rect id="Rectangle-10-Copy-27" x="12" y="9" width="2" height="2"></rect>
                        <rect id="Rectangle-10-Copy-26" x="15" y="9" width="2" height="2"></rect>
                        <rect id="Rectangle-10-Copy-25" x="18" y="9" width="2" height="2"></rect>
                        <rect id="Rectangle-10-Copy-24" x="21" y="9" width="2" height="2"></rect>
                        <rect id="Rectangle-10-Copy-39" x="0" y="12" width="2" height="2"></rect>
                        <rect id="Rectangle-10-Copy-38" x="6" y="12" width="2" height="2"></rect>
                        <rect id="Rectangle-10-Copy-37" x="3" y="12" width="2" height="2"></rect>
                        <rect id="Rectangle-10-Copy-36" x="9" y="12" width="2" height="2"></rect>
                        <rect id="Rectangle-10-Copy-35" x="12" y="12" width="2" height="2"></rect>
                        <rect id="Rectangle-10-Copy-34" x="15" y="12" width="2" height="2"></rect>
                        <rect id="Rectangle-10-Copy-33" x="18" y="12" width="2" height="2"></rect>
                        <rect id="Rectangle-10-Copy-32" x="21" y="12" width="2" height="2"></rect>
                    </g>
                </g>
                <g id="Rectangle-50" transform="translate(7.000000, 72.000000)">
                    <mask id="mask-15" fill="white">
                        <use xlink:href="#path-14"></use>
                    </mask>
                    <g id="Mask">
                        <use fill="#FCFAE8" fill-rule="evenodd" xlink:href="#path-14"></use>
                        <use fill="black" fill-opacity="1" filter="url(#filter-16)" xlink:href="#path-14"></use>
                        <use stroke="#292929" mask="url(#mask-17)" stroke-width="4" xlink:href="#path-14"></use>
                    </g>
                    <g id="Group-5" mask="url(#mask-15)">
                        <g transform="translate(-5.000000, 0.000000)">
                            <rect id="Rectangle-50" fill="#FF9B9B" x="0" y="0" width="18" height="63"></rect>
                            <rect id="Rectangle-50-Copy" fill="#FFDA74" x="18" y="0" width="18" height="63"></rect>
                            <rect id="Rectangle-50-Copy-3" fill="#A0FF73" x="54" y="0" width="18" height="63"></rect>
                            <rect id="Rectangle-50-Copy-2" fill="#5CC6EC" x="36" y="0" width="18" height="63"></rect>
                            <rect id="Rectangle-50-Copy-4" fill="#7A8FE8" x="72" y="0" width="18" height="63"></rect>
                        </g>
                    </g>
                    <mask id="mask-19" fill="white">
                        <use xlink:href="#path-18"></use>
                    </mask>
                    <g id="Mask">
                        <use fill="black" fill-opacity="1" filter="url(#filter-20)" xlink:href="#path-18"></use>
                        <use stroke="#292929" mask="url(#mask-21)" stroke-width="4" xlink:href="#path-18"></use>
                    </g>
                </g>
            </g>
            <circle id="Oval-18" fill="#D8D8D8" cx="66.5" cy="192.5" r="1.5"></circle>
            <circle id="Oval-18" fill="#D8D8D8" cx="146.5" cy="192.5" r="1.5"></circle>
            <circle id="Oval-20" fill="#7CDE4D" cx="152" cy="164" r="1"></circle>
            <text id="✦" font-family="ZapfDingbatsITC, Zapf Dingbats" font-size="13" font-weight="normal" fill="#FFFFFF">
                <tspan x="135" y="55">✦</tspan>
            </text>
            <text id="✦" font-family="ZapfDingbatsITC, Zapf Dingbats" font-size="13" font-weight="normal" fill="#FFFFFF">
                <tspan x="95" y="65">✦</tspan>
            </text>
            <text id="✦" font-family="ZapfDingbatsITC, Zapf Dingbats" font-size="13" font-weight="normal" fill="#FFFFFF">
                <tspan x="62" y="44">✦</tspan>
            </text>
        </g>
    </g>
</svg>