<?xml version="1.0" encoding="UTF-8" standalone="no"?>
<svg width="11px" height="15px" viewBox="0 0 11 15" version="1.1" xmlns="http://www.w3.org/2000/svg" xmlns:xlink="http://www.w3.org/1999/xlink">
    <!-- Generator: Sketch 3.7.2 (28276) - http://www.bohemiancoding.com/sketch -->
    <title>Shape Copy</title>
    <desc>Created with Sketch.</desc>
    <defs></defs>
    <g id="Page-1" stroke="none" stroke-width="1" fill="none" fill-rule="evenodd">
        <g id="Task-lista" transform="translate(-469.000000, -290.000000)" fill="#979797">
            <path d="M474.404163,292.311743 C474.405058,292.075644 474.408332,291.908332 474.408332,291.908332 C477.445898,291.908332 479.908332,294.370766 479.908332,297.408332 C479.908332,298.679784 479.4769,299.85047 478.752443,300.78198 L478.03778,300.025481 C478.03778,300.025481 478.896567,299.165046 478.908332,297.408332 C478.896567,294.446113 476.337715,292.906621 474.408332,292.906621 C474.405862,292.783317 474.404627,292.659287 474.404163,292.542597 L474.404163,294.808326 L472,292.404163 L474.404163,290 L474.404163,292.311743 Z M474.504169,302.470236 C474.503275,302.706336 474.5,302.873647 474.5,302.873647 C471.462434,302.873647 469,300.411213 469,297.373647 C469,296.102195 469.431433,294.93151 470.155889,294 L470.870553,294.756499 C470.870553,294.756499 470.011766,295.616933 470,297.373647 C470.011766,300.335866 472.570618,301.875358 474.5,301.875358 C474.50247,301.998663 474.503706,302.122693 474.504169,302.239383 L474.504169,299.973653 L476.908332,302.377816 L474.504169,304.78198 L474.504169,302.470237 Z" id="Shape-Copy"></path>
        </g>
    </g>
</svg>