<?xml version="1.0" encoding="UTF-8" standalone="no"?>
<svg width="12px" height="16px" viewBox="0 0 12 16" version="1.1" xmlns="http://www.w3.org/2000/svg" xmlns:xlink="http://www.w3.org/1999/xlink">
    <!-- Generator: Sketch 3.7.1 (28215) - http://www.bohemiancoding.com/sketch -->
    <title>Shape Copy 2</title>
    <desc>Created with Sketch.</desc>
    <defs></defs>
    <g id="Page-1" stroke="none" stroke-width="1" fill="none" fill-rule="evenodd">
        <g id="Task-lista" transform="translate(-61.000000, -586.000000)" fill="#0359C8">
            <path d="M66.9041631,588.938096 C66.9050576,588.701997 66.9083324,588.534685 66.9083324,588.534685 C69.9458985,588.534685 72.4083324,590.997119 72.4083324,594.034685 C72.4083324,595.306137 71.9768998,596.476822 71.2524435,597.408332 L70.5377797,596.651834 C70.5377797,596.651834 71.3965666,595.791399 71.4083324,594.034685 C71.3965666,591.072466 68.8377147,589.532974 66.9083324,589.532974 C66.9058621,589.40967 66.9046267,589.28564 66.9041631,589.168949 L66.9041631,591.434679 L64.5,589.030516 L66.9041631,586.626353 L66.9041631,588.938096 Z M67.0041692,599.096589 C67.0032748,599.332688 67,599.5 67,599.5 C63.9624339,599.5 61.5,597.037566 61.5,594 C61.5,592.728548 61.9314326,591.557863 62.6558889,590.626353 L63.3705526,591.382851 C63.3705526,591.382851 62.5117657,592.243286 62.5,594 C62.5117657,596.962219 65.0706177,598.501711 67,598.501711 C67.0024703,598.625015 67.0037057,598.749045 67.0041692,598.865736 L67.0041692,596.600006 L69.4083324,599.004169 L67.0041692,601.408332 L67.0041692,599.096589 Z" id="Shape-Copy-2"></path>
        </g>
    </g>
</svg>