<svg xmlns="http://www.w3.org/2000/svg" viewBox="0 0 16 16"><defs><style>.cls-1{opacity:0;}.cls-2{fill:#fff;}.cls-3{fill:#ffd60b;}.cls-4{fill:#af7d00;}.cls-5{fill:none;stroke:#af7d00;stroke-miterlimit:10;stroke-width:0.75px;}.cls-6{fill:#29abe2;}</style></defs><title>clap_clap</title><g id="Layer_2" data-name="Layer 2"><g id="Layer_1-2" data-name="Layer 1"><g class="cls-1"><path class="cls-2" d="M15,1V15H1V1H15m1-1H0V16H16V0Z"/></g><path class="cls-3" d="M7.14,14.62.38,8.83V5.23L4.09,3.38h.78l5.51,4.4V4.38h1.19a1,1,0,0,1,1,1V8.06l1,2.84L9.89,14.62Z"/><path class="cls-4" d="M4.74,3.75,9.53,7.59l1.22,1V4.75h.82a.69.69,0,0,1,.68.68V8.12l0,.12.85,2.56L9.73,14.25H7.28L.75,8.66V5.46L4.18,3.75h.56M5,3H4L0,5V9l7,6h3l4-4L13,8V5.43A1.43,1.43,0,0,0,11.57,4H10V7L5,3Z"/><path class="cls-3" d="M9.5,15.62a3.2,3.2,0,0,1-2.29-.94L2.38,9.84V6.23L6.09,4.38h.78l5.51,4.4V5.38h1.19a1,1,0,0,1,1,1V9.06l1,2.84-3.68,3.72Z"/><path class="cls-4" d="M6.74,4.75l4.79,3.84,1.22,1V5.75h.82a.69.69,0,0,1,.68.68V9.12l0,.12.85,2.56-3.41,3.45H9.5a2.85,2.85,0,0,1-2-.84L2.75,9.69V6.46L6.18,4.75h.56M7,4H6L2,6v4l4.94,4.94A3.62,3.62,0,0,0,9.5,16H12l4-4L15,9V6.43A1.43,1.43,0,0,0,13.57,5H12V8L7,4Z"/><line class="cls-5" x1="4.75" y1="6.17" x2="8" y2="9"/><line class="cls-5" x1="2.5" y1="7.04" x2="7" y2="11"/><rect class="cls-6" x="11" width="1" height="3"/><rect class="cls-6" x="8" y="1" width="1" height="1"/><rect class="cls-6" x="9" y="2" width="1" height="1"/><rect class="cls-6" x="13" y="2" width="1" height="1" transform="translate(11 16) rotate(-90)"/><rect class="cls-6" x="14" y="1" width="1" height="1" transform="translate(13 16) rotate(-90)"/></g></g></svg>