<svg xmlns="http://www.w3.org/2000/svg" viewBox="0 0 16 16"><defs><style>.cls-1{opacity:0;}.cls-2{fill:#fff;}.cls-3{fill:#ffd60b;}.cls-4{fill:#ffb000;}.cls-5{fill:#af7d00;}.cls-6{fill:#ccc;}</style></defs><title>thinking_face</title><g id="Layer_2" data-name="Layer 2"><g id="Layer_1-2" data-name="Layer 1"><g class="cls-1"><path class="cls-2" d="M15,1V15H1V1H15m1-1H0V16H16V0Z"/></g><circle class="cls-3" cx="7.5" cy="8.5" r="6.8"/><path class="cls-4" d="M11.94,3.36a6.79,6.79,0,0,1-9.58,9.58,6.79,6.79,0,1,0,9.58-9.58Z"/><path class="cls-5" d="M7.5,1.75A6.75,6.75,0,1,1,.75,8.5,6.76,6.76,0,0,1,7.5,1.75M7.5,1A7.5,7.5,0,1,0,15,8.5,7.5,7.5,0,0,0,7.5,1Z"/><polygon class="cls-2" points="2.38 15.63 2.38 9.38 4.63 9.38 4.63 11.38 10.63 11.38 10.63 13.63 7.63 13.63 7.63 15.63 2.38 15.63"/><path class="cls-5" d="M4.25,9.75v2h6v1.5h-3v2H2.75V9.75h1.5M5,9H2v7H8V14h3V11H5V9Z"/><rect class="cls-6" x="3" y="14" width="4" height="1"/><rect x="6" y="5" width="2" height="2"/><rect x="10" y="4" width="2" height="1"/><rect x="10" y="6" width="2" height="2"/><path class="cls-2" d="M8.53,2A4.58,4.58,0,0,0,8,2,7.1,7.1,0,0,0,1.27,7,13.11,13.11,0,0,1,8.53,2Z"/><rect x="6" y="3" width="2" height="1"/><rect x="6" y="9" width="6" height="1"/></g></g></svg>