<?xml version="1.0" encoding="UTF-8"?>
<svg width="229px" height="107px" viewBox="0 0 229 107" version="1.1" xmlns="http://www.w3.org/2000/svg" xmlns:xlink="http://www.w3.org/1999/xlink">
    <!-- Generator: sketchtool 50.2 (55047) - http://www.bohemiancoding.com/sketch -->
    <title>A7D899A7-F6B7-4824-9907-C6B660FE4D05</title>
    <desc>Created with sketchtool.</desc>
    <defs></defs>
    <g id="Buying-from-received-link" stroke="none" stroke-width="1" fill="none" fill-rule="evenodd">
        <g id="Buy-from-link-Invite-People-+-Thank-you" transform="translate(-723.000000, -333.000000)">
            <g id="Group-3" transform="translate(516.000000, 140.000000)">
                <g id="graphic" transform="translate(207.000000, 193.000000)">
                    <g id="Group" transform="translate(67.000000, 0.000000)">
                        <circle id="Oval-2-Copy-2" stroke="#B7B7B7" stroke-width="2" fill="#F1F1F1" cx="50" cy="57" r="49"></circle>
                        <circle id="Oval-2-Copy" stroke="#B7B7B7" stroke-width="2" fill="#FFFFFF" cx="50" cy="50" r="49"></circle>
                        <path d="M44.9345104,47.0110029 L73.2404801,47.0110029 L73.2404801,61.1639877 L30.7815256,61.1639877 L30.7815256,47.0110029 L30.7815256,32.858018 L44.9345104,32.858018 L44.9345104,47.0110029 Z" id="Combined-Shape" fill="#B7B7B7" transform="translate(52.011003, 47.011003) rotate(-45.000000) translate(-52.011003, -47.011003) "></path>
                    </g>
                    <g id="Group-2" transform="translate(0.000000, 17.000000)" fill="#B9B9B9">
                        <rect id="Rectangle-4" x="192" y="36" width="37" height="2"></rect>
                        <rect id="Rectangle-4-Copy-2" x="179" y="0" width="24" height="2"></rect>
                        <rect id="Rectangle-4-Copy" x="187" y="56" width="12" height="2"></rect>
                        <rect id="Rectangle-4-Copy-5" x="0" y="34" width="37" height="2"></rect>
                        <rect id="Rectangle-4-Copy-4" x="29" y="9" width="22" height="2"></rect>
                        <rect id="Rectangle-4-Copy-3" x="35" y="65" width="12" height="2"></rect>
                    </g>
                </g>
            </g>
        </g>
    </g>
</svg>